<svg width="65" height="65" viewBox="0 0 65 65" fill="none" xmlns="http://www.w3.org/2000/svg">
<path fill-rule="evenodd" clip-rule="evenodd" d="M61.2398 47.5978C47.1997 49.5295 33.2067 51.4141 19.1666 53.3457C18.2715 53.4871 17.4234 53.9111 16.8109 54.5707C13.7956 57.8687 11.1572 60.9312 9.83798 62.2504C9.46107 62.6273 8.75435 62.4388 8.66012 61.8735C8.37744 60.036 7.81206 56.2197 7.34092 52.8746L2.017 13.3456C1.87566 12.2149 2.62949 11.2255 3.76023 11.037L55.3034 4.017C56.4341 3.87566 57.4235 4.62949 57.612 5.76024L62.983 45.2892C63.1243 46.4199 62.3705 47.4565 61.2398 47.5978Z" fill="#FBB3CB"/>
<path fill-rule="evenodd" clip-rule="evenodd" d="M44.1373 45.3834C41.7344 46.844 37.8711 47.7391 32.7356 48.0218C32.2644 48.0218 31.8404 48.0689 31.7462 48.116C30.5683 48.3516 25.9982 48.0689 24.3492 47.6449C21.0041 46.7968 18.083 43.4046 16.858 38.9287C16.1984 36.5259 16.9052 30.1655 18.1301 27.3386L18.4128 26.6319L17.8946 24.9358C17.659 24.1348 17.4234 23.3339 17.1878 22.5801C17.0465 21.6849 16.9994 20.6484 17.0465 19.4234C17.0936 18.6696 17.1878 17.9629 17.2821 17.3504C17.3763 17.0206 17.5176 16.6436 17.8474 16.4552C18.3657 16.1254 19.1195 16.2667 21.0983 17.209C22.7945 18.01 26.4694 19.4705 26.7049 19.4234C26.7992 19.4234 27.2232 19.2821 27.6472 19.1878C28.778 18.9051 30.0501 18.7167 31.5106 18.5753C32.7356 18.4811 32.8298 18.4811 33.0654 18.2455C33.2067 18.1513 33.8192 17.633 34.4317 17.1619C36.4576 15.6071 36.9288 15.1831 37.7297 14.3822C38.5778 13.487 38.8605 13.2985 39.5672 13.0158C40.1325 12.7803 40.5566 12.7332 40.9335 12.8745C41.6402 13.1101 41.97 13.8639 42.6296 15.3716C42.8652 15.8898 43.0536 16.361 43.2421 17.0677C43.4306 17.8215 43.6661 18.9523 43.619 20.4128L43.7603 23.0512L43.9959 23.2868C45.9276 25.3598 47.3882 28.8463 48.3304 33.4635C49.367 37.9865 47.4353 43.3575 44.1373 45.3834Z" fill="url(#paint0_linear_1_48)"/>
<path d="M25.7532 32.2155C25.9442 30.9549 25.2648 29.8066 24.2357 29.6507C23.2067 29.4948 22.2176 30.3903 22.0266 31.6509C21.8356 32.9115 22.515 34.0598 23.5441 34.2157C24.5731 34.3716 25.5622 33.4761 25.7532 32.2155Z" fill="#F1AAAB"/>
<path d="M41.6462 32.2183C42.6547 31.9606 43.2163 30.7503 42.9006 29.5149C42.5849 28.2796 41.5114 27.487 40.503 27.7447C39.4945 28.0024 38.933 29.2128 39.2486 30.4482C39.5643 31.6835 40.6378 32.476 41.6462 32.2183Z" fill="#F1AAAB"/>
<path fill-rule="evenodd" clip-rule="evenodd" d="M38.3893 26.255C37.7297 26.5848 37.7768 28.2338 38.4364 29.2703C39.2845 30.5895 40.5095 30.0241 40.3681 28.4222C40.2268 26.8675 39.2374 25.7838 38.3893 26.255ZM24.8204 27.7626C24.0194 28.5636 24.1136 30.9193 25.0088 31.4847C26.5636 32.427 27.4588 28.6107 25.9511 27.6213C25.5742 27.3857 25.1502 27.4328 24.8204 27.7626ZM35.7509 30.5895C35.7038 30.6366 35.5153 30.7308 35.374 30.8722C34.8086 31.3433 33.9606 31.3904 33.3481 30.9664C32.8298 30.5895 32.4529 30.6366 31.9817 31.0606C31.3221 31.6731 30.5212 31.7674 29.8145 31.2962C28.9193 30.6837 27.977 31.4376 28.8251 32.05C29.8616 32.8039 31.5577 32.851 32.5471 32.1443C32.7356 32.0029 32.7827 32.0029 33.1596 32.1443C34.2904 32.5212 36.0336 32.1443 36.599 31.3433C36.9759 30.8722 36.3634 30.3539 35.7509 30.5895Z" fill="#4B150B"/>
<path fill-rule="evenodd" clip-rule="evenodd" d="M19.3551 18.6696C18.7426 19.0936 19.0253 20.4128 19.5907 23.0041C19.7791 23.8522 19.8262 23.9935 20.0147 24.1348C21.1926 24.8887 25.0559 22.0618 24.6319 20.6484C24.5377 20.2243 23.5954 19.8945 21.805 19.2349C19.732 18.434 19.4493 18.5753 19.3551 18.6696Z" fill="url(#paint1_linear_1_48)"/>
<path fill-rule="evenodd" clip-rule="evenodd" d="M40.5566 15.7014C41.2633 15.8898 41.4517 17.209 41.8758 19.8474C42.0171 20.6955 42.0171 20.8839 41.8758 21.0253C41.0748 22.156 36.4576 20.9311 36.3163 19.4705C36.2691 19.0465 37.023 18.3869 38.4364 17.1148C40.1325 15.6543 40.4152 15.7014 40.5566 15.7014Z" fill="url(#paint2_linear_1_48)"/>
<defs>
<linearGradient id="paint0_linear_1_48" x1="31.6135" y1="30.3996" x2="-46.4281" y2="105.605" gradientUnits="userSpaceOnUse">
<stop stop-color="white"/>
<stop offset="0.2929" stop-color="#FFB3CC"/>
</linearGradient>
<linearGradient id="paint1_linear_1_48" x1="27.1186" y1="19.4135" x2="19.8442" y2="21.5122" gradientUnits="userSpaceOnUse">
<stop stop-color="white"/>
<stop offset="0.9926" stop-color="#FFB3CC"/>
</linearGradient>
<linearGradient id="paint2_linear_1_48" x1="44.7926" y1="18.173" x2="37.2606" y2="18.9394" gradientUnits="userSpaceOnUse">
<stop stop-color="white"/>
<stop offset="0.776" stop-color="#FFB3CC"/>
</linearGradient>
</defs>
</svg>
