<svg width="261" height="66" viewBox="0 0 261 66" fill="none" xmlns="http://www.w3.org/2000/svg">
<path fill-rule="evenodd" clip-rule="evenodd" d="M59.2398 44.0107C45.1997 45.9607 31.2067 47.8631 17.1666 49.8131C16.2715 49.9558 15.4234 50.3838 14.8109 51.0497C11.7956 54.3789 9.15719 57.4704 7.83798 58.802C7.46107 59.1825 6.75435 58.9923 6.66012 58.4216C6.37744 56.5667 5.81206 52.7143 5.34092 49.3375L0.0170022 9.43416C-0.124341 8.29271 0.629488 7.29393 1.76023 7.10369L53.3034 0.0171632C54.4341 -0.125519 55.4235 0.635453 55.612 1.77691L60.983 41.6802C61.1243 42.8217 60.3705 43.868 59.2398 44.0107Z" fill="#FBB3CB"/>
<path fill-rule="evenodd" clip-rule="evenodd" d="M42.5269 41.2143C40.1245 42.6581 36.2618 43.543 31.1272 43.8224C30.6561 43.8224 30.2321 43.869 30.1379 43.9156C28.9603 44.1485 24.3909 43.869 22.7422 43.4499C19.3977 42.6115 16.4771 39.2582 15.2523 34.8338C14.5928 32.4585 15.2994 26.1711 16.5242 23.3767L16.8068 22.6781L16.2886 21.0014C16.0531 20.2097 15.8176 19.4179 15.582 18.6727C15.4407 17.7878 15.3936 16.7632 15.4407 15.5523C15.4878 14.8071 15.582 14.1085 15.6762 13.5031C15.7705 13.1771 15.9118 12.8045 16.2415 12.6182C16.7597 12.2922 17.5134 12.4319 19.4919 13.3634C21.1877 14.1551 24.862 15.5989 25.0975 15.5523C25.1917 15.5523 25.6157 15.4126 26.0397 15.3194C27.1702 15.04 28.4421 14.8537 29.9024 14.714C31.1272 14.6208 31.2214 14.6208 31.4569 14.388C31.5982 14.2948 32.2106 13.7825 32.823 13.3168C34.8486 11.7799 35.3196 11.3607 36.1204 10.5689C36.9684 9.68405 37.251 9.49776 37.9576 9.21831C38.5229 8.98545 38.9468 8.93887 39.3237 9.07859C40.0303 9.31146 40.36 10.0566 41.0195 11.547C41.255 12.0593 41.4435 12.525 41.6319 13.2236C41.8203 13.9688 42.0558 15.0866 42.0087 16.5304L42.1501 19.1385L42.3856 19.3713C44.317 21.4206 45.7773 24.867 46.7194 29.4312C47.7557 33.9023 45.8244 39.2117 42.5269 41.2143Z" fill="url(#paint0_linear_2_2)"/>
<path d="M23.7963 28.8823C23.9876 27.6194 23.307 26.469 22.2761 26.3128C21.2452 26.1566 20.2543 27.0538 20.063 28.3167C19.8716 29.5796 20.5522 30.7299 21.5832 30.8861C22.6141 31.0423 23.6049 30.1452 23.7963 28.8823Z" fill="#F1AAAB"/>
<path d="M39.7182 28.8852C40.7285 28.627 41.2911 27.4144 40.9748 26.1768C40.6586 24.9392 39.5832 24.1452 38.5729 24.4034C37.5626 24.6616 37 25.8742 37.3163 27.1118C37.6326 28.3494 38.7079 29.1433 39.7182 28.8852Z" fill="#F1AAAB"/>
<path fill-rule="evenodd" clip-rule="evenodd" d="M36.023 22.1368C35.3677 22.5426 35.4145 24.5714 36.0698 25.8466C36.9123 27.4697 38.1293 26.7741 37.9889 24.8032C37.8484 22.8903 36.8655 21.5571 36.023 22.1368ZM22.5427 23.9917C21.7469 24.9771 21.8406 27.8754 22.7299 28.571C24.2745 29.7303 25.1638 25.0351 23.666 23.8178C23.2916 23.528 22.8703 23.5859 22.5427 23.9917ZM33.4018 27.4697C33.355 27.5276 33.1678 27.6436 33.0273 27.8175C32.4657 28.3971 31.6232 28.4551 31.0147 27.9334C30.4998 27.4697 30.1253 27.5276 29.6573 28.0493C29.002 28.8029 28.2063 28.9188 27.5042 28.3392C26.6148 27.5856 25.6787 28.513 26.5212 29.2666C27.551 30.1941 29.236 30.252 30.2189 29.3825C30.4062 29.2086 30.453 29.2086 30.8274 29.3825C31.9508 29.8463 33.6826 29.3825 34.2443 28.3971C34.6188 27.8175 34.0103 27.1798 33.4018 27.4697Z" fill="#4B150B"/>
<path fill-rule="evenodd" clip-rule="evenodd" d="M18.2438 15.0783C17.8104 15.5274 18.0104 16.9247 18.4104 19.6693C18.5438 20.5675 18.5771 20.7173 18.7104 20.867C19.5438 21.6654 22.2771 18.6713 21.9771 17.1742C21.9104 16.7251 21.2438 16.3758 19.9771 15.6771C18.5104 14.8288 18.3104 14.9785 18.2438 15.0783Z" fill="url(#paint1_linear_2_2)"/>
<path fill-rule="evenodd" clip-rule="evenodd" d="M38.4912 12.0002C39.2394 12.1963 39.4389 13.5689 39.8878 16.314C40.0374 17.1964 40.0374 17.3925 39.8878 17.5396C39.0399 18.7161 34.1518 17.4415 34.0022 15.9219C33.9523 15.4807 34.7504 14.7944 36.2467 13.4708C38.0423 11.9512 38.3416 12.0002 38.4912 12.0002Z" fill="url(#paint2_linear_2_2)"/>
<path d="M93.487 46V36.5642H81V34.6586H93.487V29.3721H83.061V27.5587H93.487V18.2459H95.5479V27.5587H106.035V29.3721H95.5479V34.6586H108.095V36.5642H95.5479V46H93.487ZM100.215 26.7289C100.155 26.6674 100.003 26.5547 99.7608 26.3908C99.5385 26.2269 99.3061 26.0629 99.0637 25.899C98.8212 25.7351 98.6495 25.6326 98.5484 25.5917C99.0132 25.0589 99.5284 24.4032 100.094 23.6246C100.66 22.8255 101.195 22.0059 101.7 21.1658C102.226 20.3257 102.64 19.5982 102.943 18.9835L104.762 19.9671C104.519 20.4179 104.206 20.9506 103.822 21.5653C103.438 22.18 103.024 22.8152 102.579 23.4709C102.155 24.1061 101.731 24.7208 101.306 25.315C100.902 25.8888 100.539 26.36 100.215 26.7289ZM88.577 26.6367C88.274 26.0015 87.8901 25.2843 87.4253 24.4852C86.9808 23.6656 86.506 22.8664 86.0008 22.0878C85.5159 21.3092 85.0512 20.6535 84.6067 20.1207L86.2433 19.0143C86.6676 19.5675 87.1425 20.2437 87.6678 21.0428C88.1931 21.8214 88.6882 22.6206 89.1529 23.4402C89.6378 24.2393 90.0217 24.936 90.3046 25.5302C90.2036 25.5712 90.0217 25.6736 89.7591 25.8375C89.5166 26.0015 89.2741 26.1654 89.0317 26.3293C88.8094 26.4727 88.6579 26.5752 88.577 26.6367Z" fill="#FBB3CB"/>
<path d="M116.855 45.8463C116.814 45.7439 116.723 45.5697 116.582 45.3238C116.44 45.0984 116.289 44.8628 116.127 44.6169C115.986 44.3915 115.875 44.2378 115.794 44.1559C117.835 43.3772 119.643 42.3322 121.219 41.0209C122.815 39.7095 124.058 38.1625 124.947 36.3798C125.856 34.5971 126.311 32.6301 126.311 30.4786V27.0977H128.22V30.4786C128.22 32.6506 128.665 34.6279 129.554 36.4105C130.463 38.1727 131.716 39.7095 133.312 41.0209C134.908 42.3322 136.737 43.367 138.798 44.1251C138.717 44.2071 138.596 44.3608 138.434 44.5862C138.272 44.8321 138.121 45.0779 137.979 45.3238C137.838 45.5697 137.737 45.7439 137.676 45.8463C136.1 45.1701 134.615 44.3403 133.221 43.3568C131.827 42.3527 130.614 41.1745 129.584 39.8222C128.574 38.4698 127.806 36.933 127.281 35.2119C126.796 36.8921 126.048 38.3981 125.038 39.73C124.027 41.0413 122.825 42.199 121.431 43.2031C120.037 44.2071 118.511 45.0882 116.855 45.8463ZM132.797 32.7223C132.716 32.6608 132.554 32.5686 132.312 32.4457C132.089 32.3022 131.867 32.169 131.645 32.0461C131.423 31.9232 131.261 31.8514 131.16 31.831C131.625 31.2572 132.079 30.6015 132.524 29.8639C132.989 29.1057 133.413 28.3476 133.797 27.5895C134.181 26.8313 134.484 26.1756 134.706 25.6224H124.159C123.573 26.5854 122.946 27.4973 122.28 28.3578C121.613 29.2184 120.926 29.9868 120.219 30.663C120.138 30.581 119.996 30.4581 119.794 30.2942C119.592 30.1303 119.39 29.9663 119.188 29.8024C118.986 29.6385 118.825 29.536 118.703 29.4951C119.734 28.5525 120.704 27.4153 121.613 26.0834C122.542 24.7516 123.351 23.3787 124.038 21.9649C124.745 20.5306 125.26 19.2089 125.583 18L127.432 18.5532C126.846 20.3564 126.099 22.1083 125.189 23.809H136.373L137.222 24.4544C136.898 25.3355 136.494 26.2678 136.009 27.2514C135.545 28.2349 135.029 29.198 134.464 30.1405C133.918 31.0831 133.362 31.9437 132.797 32.7223ZM111.945 39.8529L110.975 38.0703C111.621 37.8449 112.419 37.5068 113.369 37.056C114.319 36.5847 115.299 36.0724 116.309 35.5192C117.339 34.966 118.299 34.423 119.188 33.8902C120.077 33.337 120.774 32.8452 121.28 32.4149L121.886 34.0439C121.32 34.4742 120.623 34.966 119.794 35.5192C118.986 36.0724 118.107 36.6257 117.158 37.1789C116.228 37.7322 115.309 38.2444 114.4 38.7157C113.49 39.187 112.672 39.566 111.945 39.8529ZM118.612 26.9748C118.229 26.6059 117.764 26.2064 117.218 25.7761C116.693 25.3458 116.127 24.9155 115.521 24.4852C114.935 24.0549 114.369 23.6656 113.824 23.3172C113.298 22.9689 112.844 22.7025 112.46 22.5181L113.581 21.1043C114.006 21.3092 114.501 21.596 115.066 21.9649C115.652 22.3132 116.248 22.7025 116.855 23.1328C117.461 23.5426 118.026 23.9422 118.552 24.3315C119.077 24.7208 119.512 25.0692 119.855 25.3765C119.774 25.438 119.643 25.5814 119.461 25.8068C119.279 26.0322 119.107 26.2576 118.946 26.483C118.784 26.7084 118.673 26.8723 118.612 26.9748Z" fill="#FBB3CB"/>
<path d="M142.465 45.8771C142.364 45.5902 142.212 45.2828 142.01 44.955C141.828 44.6476 141.606 44.3915 141.344 44.1866C143.384 43.7153 145.092 42.9469 146.466 41.8815C147.84 40.816 148.88 39.3611 149.587 37.517C150.295 35.6729 150.668 33.3472 150.709 30.5401H142.222V28.6345H168.075V30.5401H159.104V42.0966C159.104 42.4859 159.195 42.7728 159.377 42.9572C159.559 43.1416 159.902 43.2338 160.407 43.2338H164.135C164.762 43.2338 165.267 43.1621 165.651 43.0187C166.055 42.8547 166.368 42.4552 166.59 41.82C166.813 41.1848 166.984 40.1705 167.105 38.7772C167.328 38.9206 167.631 39.0743 168.015 39.2382C168.399 39.4021 168.722 39.5251 168.985 39.607C168.863 40.8569 168.671 41.861 168.409 42.6191C168.166 43.3568 167.863 43.91 167.499 44.2788C167.136 44.6476 166.722 44.8833 166.257 44.9857C165.792 45.1087 165.287 45.1701 164.741 45.1701H159.741C158.831 45.1701 158.165 44.9857 157.74 44.6169C157.316 44.2686 157.104 43.6744 157.104 42.8342V30.5401H152.709C152.669 33.4907 152.265 35.9905 151.497 38.0395C150.729 40.0681 149.597 41.7175 148.102 42.9879C146.607 44.2583 144.728 45.2214 142.465 45.8771ZM145.314 21.8112V19.9671H165.014V21.8112H145.314Z" fill="#FBB3CB"/>
<path d="M176.168 44.8321V22.6103H182.017C182.26 22.2005 182.502 21.6985 182.744 21.1043C183.007 20.4896 183.24 19.8954 183.442 19.3216C183.644 18.7479 183.785 18.3074 183.866 18L186.2 18.3381C186.038 18.8913 185.755 19.5778 185.351 20.3974C184.967 21.217 184.593 21.9546 184.23 22.6103H194.898V44.8321H176.168ZM178.168 43.0187H192.898V37.9166H178.168V43.0187ZM178.168 36.1339H192.898V31.1855H178.168V36.1339ZM178.168 29.3721H192.898V24.4237H178.168V29.3721Z" fill="#FBB3CB"/>
<path d="M206.173 45.7234V33.0604H225.388V45.7234H206.173ZM215.902 32.4457C215.861 32.3432 215.75 32.1895 215.568 31.9846C215.407 31.7797 215.245 31.5748 215.083 31.3699C214.922 31.165 214.8 31.0318 214.72 30.9704C216.397 30.0893 217.649 28.8394 218.478 27.2206C219.306 25.6019 219.821 23.6861 220.024 21.4731H215.78V19.7212H228.267C228.267 20.5613 228.227 21.5038 228.146 22.5488C228.086 23.5939 228.005 24.6184 227.904 25.6224C227.803 26.6059 227.681 27.446 227.54 28.1427C227.338 29.3926 226.934 30.2737 226.328 30.7859C225.721 31.2777 224.792 31.5236 223.539 31.5236H221.6C221.579 31.2572 221.519 30.9294 221.418 30.5401C221.317 30.1508 221.226 29.8536 221.145 29.6487H223.327C224.176 29.6487 224.731 29.4848 224.994 29.157C225.277 28.8086 225.499 28.2759 225.661 27.5587C225.762 27.0875 225.853 26.483 225.934 25.7453C226.014 24.9872 226.085 24.2188 226.146 23.4402C226.206 22.6615 226.247 22.0059 226.267 21.4731H221.872C221.751 22.9689 221.488 24.4135 221.084 25.8068C220.68 27.1797 220.064 28.4296 219.236 29.5565C218.407 30.6835 217.296 31.6465 215.902 32.4457ZM202.414 32.1383L201.748 30.2942C202.091 30.2122 202.505 30.1098 202.99 29.9868C203.475 29.8434 204.001 29.6897 204.566 29.5258V20.0285C205.395 19.9876 206.355 19.8851 207.446 19.7212C208.557 19.5368 209.658 19.3114 210.749 19.045C211.861 18.7581 212.83 18.4508 213.659 18.1229L214.72 19.7519C213.992 20.0183 213.113 20.2847 212.083 20.551C211.052 20.8174 210.022 21.0633 208.991 21.2887C207.981 21.4936 207.122 21.637 206.415 21.719V28.9726C207.365 28.6857 208.294 28.3988 209.204 28.112C210.133 27.8046 210.921 27.5382 211.568 27.3128C211.285 26.7596 210.992 26.2371 210.689 25.7453C210.406 25.2536 210.153 24.854 209.931 24.5467L211.537 23.6861C211.78 24.0139 212.063 24.4544 212.386 25.0077C212.709 25.5404 213.043 26.1244 213.386 26.7596C213.75 27.3948 214.083 28.0198 214.386 28.6345C214.71 29.2287 214.962 29.7512 215.144 30.202C215.063 30.2225 214.901 30.3044 214.659 30.4479C214.417 30.5708 214.174 30.6937 213.932 30.8167C213.689 30.9396 213.527 31.0318 213.447 31.0933C213.325 30.7859 213.174 30.4479 212.992 30.079C212.81 29.6897 212.608 29.2799 212.386 28.8496C211.719 29.116 210.921 29.4131 209.992 29.7409C209.082 30.0483 208.143 30.3659 207.173 30.6937C206.203 31.0011 205.294 31.288 204.445 31.5543C203.617 31.8002 202.94 31.9949 202.414 32.1383ZM208.112 44.0329H214.811V40.191H208.112V44.0329ZM216.72 44.0329H223.418V40.191H216.72V44.0329ZM208.112 38.5928H214.811V34.7508H208.112V38.5928ZM216.72 38.5928H223.418V34.7508H216.72V38.5928Z" fill="#FBB3CB"/>
<path d="M247.21 45.1087C246.281 45.1087 245.614 44.9345 245.21 44.5862C244.806 44.2583 244.603 43.7051 244.603 42.9265V31.5543L241.027 32.876L240.36 31.124L244.603 29.5258V20.4588H246.513V28.8189L250.12 27.4665V18.3074H251.968V26.7903L256.999 24.8847L258.03 25.3765V35.427C258.03 36.1032 257.838 36.6564 257.454 37.0867C257.09 37.517 256.515 37.7731 255.727 37.8551C255.504 37.8756 255.161 37.9063 254.696 37.9473C254.252 37.9678 253.908 37.9883 253.666 38.0088C253.625 37.6604 253.544 37.3019 253.423 36.933C253.302 36.5642 253.201 36.2978 253.12 36.1339H255.06C255.464 36.1339 255.747 36.0622 255.908 35.9188C256.09 35.7753 256.181 35.509 256.181 35.1196V27.1899L251.968 28.7881V39.8836H250.12V29.4643L246.513 30.8167V42.2503C246.513 42.5781 246.594 42.8342 246.755 43.0187C246.917 43.2031 247.25 43.2953 247.755 43.2953H255.181C255.828 43.2953 256.343 43.2133 256.727 43.0494C257.111 42.8855 257.414 42.4962 257.636 41.8815C257.858 41.2667 258.02 40.2832 258.121 38.9308C258.343 39.0538 258.636 39.187 259 39.3304C259.364 39.4533 259.697 39.566 260 39.6685C259.879 40.9389 259.697 41.9429 259.454 42.6806C259.212 43.4182 258.909 43.9612 258.545 44.3096C258.202 44.6579 257.787 44.873 257.303 44.955C256.838 45.0574 256.302 45.1087 255.696 45.1087H247.21ZM232.662 42.0659L232.086 40.0988C232.612 39.9963 233.248 39.8324 233.996 39.607C234.763 39.3611 235.572 39.0948 236.42 38.8079V28.6652H232.571V26.8518H236.42V19.4138H238.299V26.8518H241.997V28.6652H238.299V38.1317C239.128 37.8244 239.906 37.517 240.633 37.2097C241.381 36.9023 241.987 36.6154 242.452 36.3491V38.2547C241.906 38.5415 241.199 38.8694 240.33 39.2382C239.481 39.607 238.572 39.9758 237.602 40.3447C236.653 40.693 235.733 41.0209 234.844 41.3282C233.975 41.6356 233.248 41.8815 232.662 42.0659Z" fill="#FBB3CB"/>
<defs>
<linearGradient id="paint0_linear_2_2" x1="30.0053" y1="26.4025" x2="-47.168" y2="101.622" gradientUnits="userSpaceOnUse">
<stop stop-color="white"/>
<stop offset="0.2929" stop-color="#FFB3CC"/>
</linearGradient>
<linearGradient id="paint1_linear_2_2" x1="23.7365" y1="15.8663" x2="18.361" y2="16.9022" gradientUnits="userSpaceOnUse">
<stop stop-color="white"/>
<stop offset="0.9926" stop-color="#FFB3CC"/>
</linearGradient>
<linearGradient id="paint2_linear_2_2" x1="42.9757" y1="14.5718" x2="35.0048" y2="15.3971" gradientUnits="userSpaceOnUse">
<stop stop-color="white"/>
<stop offset="0.776" stop-color="#FFB3CC"/>
</linearGradient>
</defs>
</svg>
