<svg width="79" height="79" viewBox="0 0 79 79" fill="none" xmlns="http://www.w3.org/2000/svg">
<path fill-rule="evenodd" clip-rule="evenodd" d="M73.9229 55.7242C57.5879 57.9716 41.3077 60.1643 24.9726 62.4117C23.9311 62.5761 22.9445 63.0695 22.2319 63.8369C18.7237 67.674 15.654 71.237 14.1192 72.7719C13.6806 73.2104 12.8584 72.9911 12.7488 72.3333C12.4199 70.1955 11.7621 65.7555 11.2139 61.8635L5.01978 15.8733C4.85533 14.5577 5.73238 13.4066 7.04796 13.1873L67.0162 5.01978C68.3318 4.85533 69.4829 5.73239 69.7021 7.04796L75.9511 53.0382C76.1156 54.3538 75.2385 55.5598 73.9229 55.7242Z" fill="black"/>
<path fill-rule="evenodd" clip-rule="evenodd" d="M54.0249 53.1477C51.2293 54.847 46.7344 55.8885 40.7595 56.2174C40.2114 56.2174 39.718 56.2722 39.6084 56.327C38.238 56.6011 32.9209 56.2722 31.0024 55.7789C27.1104 54.7922 23.7119 50.8455 22.2867 45.638C21.5193 42.8424 22.3415 35.4423 23.7667 32.1534L24.0956 31.3311L23.4926 29.3578C23.2185 28.4259 22.9445 27.494 22.6704 26.617C22.5059 25.5755 22.4511 24.3695 22.5059 22.9443C22.5608 22.0673 22.6704 21.2451 22.78 20.5325C22.8896 20.1487 23.0541 19.7102 23.4378 19.491C24.0408 19.1072 24.9178 19.2717 27.2201 20.368C29.1934 21.2999 33.4691 22.9992 33.7431 22.9443C33.8528 22.9443 34.3461 22.7799 34.8394 22.6703C36.155 22.3414 37.635 22.1221 39.3343 21.9577C40.7595 21.848 40.8692 21.848 41.1432 21.5739C41.3077 21.4643 42.0203 20.8613 42.7329 20.3132C45.09 18.5043 45.6381 18.0109 46.57 17.0791C47.5567 16.0376 47.8856 15.8183 48.7078 15.4894C49.3656 15.2153 49.8589 15.1605 50.2974 15.325C51.1197 15.599 51.5034 16.4761 52.2708 18.2302C52.5449 18.8332 52.7641 19.3813 52.9834 20.2036C53.2027 21.0806 53.4767 22.3962 53.4219 24.0955L53.5864 27.1651L53.8604 27.4392C56.1079 29.8511 57.8072 33.9075 58.9035 39.2794C60.1094 44.5417 57.862 50.7907 54.0249 53.1477Z" fill="white"/>
<path fill-rule="evenodd" clip-rule="evenodd" d="M49.3958 35.8029C49.4041 35.9135 49.4236 36.0261 49.4552 36.1389C49.6849 36.958 50.4658 37.4835 51.1994 37.3127C51.9331 37.1418 52.3416 36.3392 52.112 35.5201C51.8823 34.701 51.1014 34.1755 50.3678 34.3464C50.3086 34.3602 50.2516 34.378 50.1969 34.3997C50.2311 34.5249 50.2559 34.6574 50.2697 34.7955C50.3449 35.5726 49.8881 35.9818 49.3958 35.8029Z" fill="black"/>
<path fill-rule="evenodd" clip-rule="evenodd" d="M47.3374 30.8926C46.57 31.2763 46.6248 33.1949 47.3922 34.4008C48.3789 35.9356 49.8041 35.2778 49.6397 33.4141C49.4752 31.6052 48.3241 30.3444 47.3374 30.8926ZM31.5505 32.6467C30.6187 33.5786 30.7283 36.3193 31.7698 36.9771C33.5787 38.0734 34.6202 33.6334 32.8661 32.4823C32.4276 32.2082 31.9342 32.263 31.5505 32.6467ZM44.2677 35.9356C44.2129 35.9905 43.9937 36.1001 43.8292 36.2645C43.1714 36.8127 42.1848 36.8675 41.4721 36.3742C40.8692 35.9356 40.4306 35.9905 39.8825 36.4838C39.1151 37.1964 38.1832 37.306 37.361 36.7579C36.3195 36.0453 35.2232 36.9223 36.2098 37.6349C37.4158 38.512 39.3891 38.5668 40.5403 37.7445C40.7595 37.5801 40.8144 37.5801 41.2529 37.7445C42.5685 38.1831 44.5966 37.7446 45.2544 36.8127C45.6929 36.2645 44.9803 35.6616 44.2677 35.9356Z" fill="black"/>
<path fill-rule="evenodd" clip-rule="evenodd" d="M30.5517 36.178C30.5728 36.7632 30.7763 37.3331 31.1518 37.5505C31.382 37.6784 31.5945 37.6896 31.781 37.6177C31.7946 37.7734 31.7889 37.9351 31.7617 38.0994C31.6052 39.0462 30.7948 39.7187 29.9516 39.6016C29.1084 39.4845 28.5517 38.6221 28.7082 37.6753C28.8647 36.7285 29.6751 36.0559 30.5183 36.173C30.5295 36.1745 30.5406 36.1762 30.5517 36.178Z" fill="black"/>
<path fill-rule="evenodd" clip-rule="evenodd" d="M25.1919 22.0675C24.4793 22.5609 24.8081 24.0957 25.4659 27.1105C25.6852 28.0972 25.74 28.2617 25.9593 28.4261C27.3297 29.3032 31.8245 26.0142 31.3312 24.3698C31.2216 23.8764 30.1253 23.4927 28.0423 22.7253C25.6304 21.7934 25.3015 21.9579 25.1919 22.0675Z" fill="black"/>
<path fill-rule="evenodd" clip-rule="evenodd" d="M49.8589 18.614C50.6812 18.8333 50.9004 20.3681 51.3938 23.4378C51.5582 24.4245 51.5582 24.6437 51.3938 24.8082C50.4619 26.1238 45.09 24.6986 44.9255 22.9993C44.8707 22.5059 45.7478 21.7385 47.3922 20.2585C49.3656 18.5592 49.6945 18.614 49.8589 18.614Z" fill="black"/>
</svg>
